<mxfile host="Electron" agent="Mozilla/5.0 (Windows NT 10.0; Win64; x64) AppleWebKit/537.36 (KHTML, like Gecko) draw.io/28.0.6 Chrome/138.0.7204.100 Electron/37.2.3 Safari/537.36" version="28.0.6">
  <diagram name="Página-1" id="4Ps5QA59vVceODriSfcD">
    <mxGraphModel dx="2108" dy="626" grid="1" gridSize="10" guides="1" tooltips="1" connect="1" arrows="1" fold="1" page="1" pageScale="1" pageWidth="827" pageHeight="1169" math="0" shadow="0">
      <root>
        <mxCell id="0" />
        <mxCell id="1" parent="0" />
        <mxCell id="5B5NyccUQG02KfH79UAM-14" style="edgeStyle=orthogonalEdgeStyle;rounded=0;orthogonalLoop=1;jettySize=auto;html=1;entryX=0.5;entryY=0;entryDx=0;entryDy=0;" edge="1" parent="1" source="5B5NyccUQG02KfH79UAM-1" target="5B5NyccUQG02KfH79UAM-2">
          <mxGeometry relative="1" as="geometry">
            <mxPoint x="414" y="110" as="targetPoint" />
          </mxGeometry>
        </mxCell>
        <mxCell id="5B5NyccUQG02KfH79UAM-1" value="Inicio" style="strokeWidth=2;html=1;shape=mxgraph.flowchart.start_1;whiteSpace=wrap;" vertex="1" parent="1">
          <mxGeometry x="364" y="40" width="100" height="40" as="geometry" />
        </mxCell>
        <mxCell id="5B5NyccUQG02KfH79UAM-15" style="edgeStyle=orthogonalEdgeStyle;rounded=0;orthogonalLoop=1;jettySize=auto;html=1;" edge="1" parent="1" source="5B5NyccUQG02KfH79UAM-2" target="5B5NyccUQG02KfH79UAM-3">
          <mxGeometry relative="1" as="geometry" />
        </mxCell>
        <mxCell id="5B5NyccUQG02KfH79UAM-2" value="Usuario entra al sitio" style="rounded=1;whiteSpace=wrap;html=1;absoluteArcSize=1;arcSize=14;strokeWidth=2;" vertex="1" parent="1">
          <mxGeometry x="339" y="120" width="150" height="50" as="geometry" />
        </mxCell>
        <mxCell id="5B5NyccUQG02KfH79UAM-16" style="edgeStyle=orthogonalEdgeStyle;rounded=0;orthogonalLoop=1;jettySize=auto;html=1;" edge="1" parent="1" source="5B5NyccUQG02KfH79UAM-3" target="5B5NyccUQG02KfH79UAM-4">
          <mxGeometry relative="1" as="geometry" />
        </mxCell>
        <mxCell id="5B5NyccUQG02KfH79UAM-3" value="Ve el catalogo de Productos" style="rounded=1;whiteSpace=wrap;html=1;absoluteArcSize=1;arcSize=14;strokeWidth=2;" vertex="1" parent="1">
          <mxGeometry x="339" y="200" width="150" height="50" as="geometry" />
        </mxCell>
        <mxCell id="5B5NyccUQG02KfH79UAM-17" style="edgeStyle=orthogonalEdgeStyle;rounded=0;orthogonalLoop=1;jettySize=auto;html=1;entryX=0.5;entryY=0;entryDx=0;entryDy=0;" edge="1" parent="1" source="5B5NyccUQG02KfH79UAM-4" target="5B5NyccUQG02KfH79UAM-5">
          <mxGeometry relative="1" as="geometry" />
        </mxCell>
        <mxCell id="5B5NyccUQG02KfH79UAM-4" value="Selecciona un producto" style="rounded=1;whiteSpace=wrap;html=1;absoluteArcSize=1;arcSize=14;strokeWidth=2;" vertex="1" parent="1">
          <mxGeometry x="339" y="280" width="150" height="50" as="geometry" />
        </mxCell>
        <mxCell id="5B5NyccUQG02KfH79UAM-5" value="Hacer Clic en &quot;agregar al carrito&quot;&amp;nbsp;" style="rounded=1;whiteSpace=wrap;html=1;absoluteArcSize=1;arcSize=14;strokeWidth=2;" vertex="1" parent="1">
          <mxGeometry x="339" y="360" width="150" height="50" as="geometry" />
        </mxCell>
        <mxCell id="5B5NyccUQG02KfH79UAM-9" style="edgeStyle=orthogonalEdgeStyle;rounded=0;orthogonalLoop=1;jettySize=auto;html=1;exitX=1;exitY=0.5;exitDx=0;exitDy=0;exitPerimeter=0;entryX=0;entryY=0.5;entryDx=0;entryDy=0;" edge="1" parent="1" source="5B5NyccUQG02KfH79UAM-6" target="5B5NyccUQG02KfH79UAM-7">
          <mxGeometry relative="1" as="geometry" />
        </mxCell>
        <mxCell id="5B5NyccUQG02KfH79UAM-10" style="edgeStyle=orthogonalEdgeStyle;rounded=0;orthogonalLoop=1;jettySize=auto;html=1;exitX=0;exitY=0.5;exitDx=0;exitDy=0;exitPerimeter=0;entryX=1;entryY=0.5;entryDx=0;entryDy=0;" edge="1" parent="1" source="5B5NyccUQG02KfH79UAM-6" target="5B5NyccUQG02KfH79UAM-8">
          <mxGeometry relative="1" as="geometry" />
        </mxCell>
        <mxCell id="5B5NyccUQG02KfH79UAM-6" value="¿Quiere seguir comprando?" style="strokeWidth=2;html=1;shape=mxgraph.flowchart.decision;whiteSpace=wrap;" vertex="1" parent="1">
          <mxGeometry x="342" y="460" width="143.5" height="110" as="geometry" />
        </mxCell>
        <mxCell id="5B5NyccUQG02KfH79UAM-7" value="Regresa al catalogo" style="rounded=1;whiteSpace=wrap;html=1;absoluteArcSize=1;arcSize=14;strokeWidth=2;" vertex="1" parent="1">
          <mxGeometry x="600" y="490" width="140" height="50" as="geometry" />
        </mxCell>
        <mxCell id="5B5NyccUQG02KfH79UAM-22" style="edgeStyle=orthogonalEdgeStyle;rounded=0;orthogonalLoop=1;jettySize=auto;html=1;" edge="1" parent="1" source="5B5NyccUQG02KfH79UAM-8" target="5B5NyccUQG02KfH79UAM-13">
          <mxGeometry relative="1" as="geometry" />
        </mxCell>
        <mxCell id="5B5NyccUQG02KfH79UAM-8" value="Ir al carrito" style="rounded=1;whiteSpace=wrap;html=1;absoluteArcSize=1;arcSize=14;strokeWidth=2;" vertex="1" parent="1">
          <mxGeometry x="90" y="490" width="140" height="50" as="geometry" />
        </mxCell>
        <mxCell id="5B5NyccUQG02KfH79UAM-11" value="SI" style="text;html=1;align=center;verticalAlign=middle;whiteSpace=wrap;rounded=0;" vertex="1" parent="1">
          <mxGeometry x="530" y="490" width="30" height="20" as="geometry" />
        </mxCell>
        <mxCell id="5B5NyccUQG02KfH79UAM-12" value="NO" style="text;html=1;align=center;verticalAlign=middle;whiteSpace=wrap;rounded=0;" vertex="1" parent="1">
          <mxGeometry x="270" y="490" width="26" height="20" as="geometry" />
        </mxCell>
        <mxCell id="5B5NyccUQG02KfH79UAM-13" value="Mostrar productos + total" style="shape=parallelogram;html=1;strokeWidth=2;perimeter=parallelogramPerimeter;whiteSpace=wrap;rounded=1;arcSize=12;size=0.23;" vertex="1" parent="1">
          <mxGeometry x="40" y="600" width="240" height="60" as="geometry" />
        </mxCell>
        <mxCell id="5B5NyccUQG02KfH79UAM-18" style="edgeStyle=orthogonalEdgeStyle;rounded=0;orthogonalLoop=1;jettySize=auto;html=1;entryX=0.5;entryY=0;entryDx=0;entryDy=0;entryPerimeter=0;" edge="1" parent="1" source="5B5NyccUQG02KfH79UAM-5" target="5B5NyccUQG02KfH79UAM-6">
          <mxGeometry relative="1" as="geometry" />
        </mxCell>
        <mxCell id="5B5NyccUQG02KfH79UAM-26" style="edgeStyle=orthogonalEdgeStyle;rounded=0;orthogonalLoop=1;jettySize=auto;html=1;entryX=0;entryY=0.5;entryDx=0;entryDy=0;" edge="1" parent="1" source="5B5NyccUQG02KfH79UAM-19" target="5B5NyccUQG02KfH79UAM-20">
          <mxGeometry relative="1" as="geometry" />
        </mxCell>
        <mxCell id="5B5NyccUQG02KfH79UAM-27" style="edgeStyle=orthogonalEdgeStyle;rounded=0;orthogonalLoop=1;jettySize=auto;html=1;" edge="1" parent="1" source="5B5NyccUQG02KfH79UAM-19" target="5B5NyccUQG02KfH79UAM-21">
          <mxGeometry relative="1" as="geometry" />
        </mxCell>
        <mxCell id="5B5NyccUQG02KfH79UAM-19" value="¿Desea eliminar o cambiar cantidad?" style="strokeWidth=2;html=1;shape=mxgraph.flowchart.decision;whiteSpace=wrap;" vertex="1" parent="1">
          <mxGeometry x="88.25" y="710" width="143.5" height="110" as="geometry" />
        </mxCell>
        <mxCell id="5B5NyccUQG02KfH79UAM-63" style="edgeStyle=orthogonalEdgeStyle;rounded=0;orthogonalLoop=1;jettySize=auto;html=1;" edge="1" parent="1" source="5B5NyccUQG02KfH79UAM-20" target="5B5NyccUQG02KfH79UAM-30">
          <mxGeometry relative="1" as="geometry" />
        </mxCell>
        <mxCell id="5B5NyccUQG02KfH79UAM-20" value="Ir al carrito" style="rounded=1;whiteSpace=wrap;html=1;absoluteArcSize=1;arcSize=14;strokeWidth=2;" vertex="1" parent="1">
          <mxGeometry x="296" y="740" width="140" height="50" as="geometry" />
        </mxCell>
        <mxCell id="5B5NyccUQG02KfH79UAM-55" style="edgeStyle=orthogonalEdgeStyle;rounded=0;orthogonalLoop=1;jettySize=auto;html=1;entryX=0.5;entryY=0;entryDx=0;entryDy=0;" edge="1" parent="1" source="5B5NyccUQG02KfH79UAM-21" target="5B5NyccUQG02KfH79UAM-28">
          <mxGeometry relative="1" as="geometry" />
        </mxCell>
        <mxCell id="5B5NyccUQG02KfH79UAM-21" value="Ir al carrito" style="rounded=1;whiteSpace=wrap;html=1;absoluteArcSize=1;arcSize=14;strokeWidth=2;" vertex="1" parent="1">
          <mxGeometry x="-120" y="740" width="140" height="50" as="geometry" />
        </mxCell>
        <mxCell id="5B5NyccUQG02KfH79UAM-23" style="edgeStyle=orthogonalEdgeStyle;rounded=0;orthogonalLoop=1;jettySize=auto;html=1;" edge="1" parent="1" source="5B5NyccUQG02KfH79UAM-13" target="5B5NyccUQG02KfH79UAM-19">
          <mxGeometry relative="1" as="geometry" />
        </mxCell>
        <mxCell id="5B5NyccUQG02KfH79UAM-24" value="NO" style="text;html=1;align=center;verticalAlign=middle;whiteSpace=wrap;rounded=0;" vertex="1" parent="1">
          <mxGeometry x="40" y="740" width="26" height="20" as="geometry" />
        </mxCell>
        <mxCell id="5B5NyccUQG02KfH79UAM-25" value="SI" style="text;html=1;align=center;verticalAlign=middle;whiteSpace=wrap;rounded=0;" vertex="1" parent="1">
          <mxGeometry x="246" y="740" width="26" height="20" as="geometry" />
        </mxCell>
        <mxCell id="5B5NyccUQG02KfH79UAM-56" style="edgeStyle=orthogonalEdgeStyle;rounded=0;orthogonalLoop=1;jettySize=auto;html=1;" edge="1" parent="1" source="5B5NyccUQG02KfH79UAM-28" target="5B5NyccUQG02KfH79UAM-29">
          <mxGeometry relative="1" as="geometry" />
        </mxCell>
        <mxCell id="5B5NyccUQG02KfH79UAM-28" value="Hacer clic en &quot;Checkout&quot;" style="rounded=1;whiteSpace=wrap;html=1;absoluteArcSize=1;arcSize=14;strokeWidth=2;" vertex="1" parent="1">
          <mxGeometry x="-120" y="870" width="140" height="50" as="geometry" />
        </mxCell>
        <mxCell id="5B5NyccUQG02KfH79UAM-53" style="edgeStyle=orthogonalEdgeStyle;rounded=0;orthogonalLoop=1;jettySize=auto;html=1;entryX=0;entryY=0.5;entryDx=0;entryDy=0;" edge="1" parent="1" source="5B5NyccUQG02KfH79UAM-29" target="5B5NyccUQG02KfH79UAM-35">
          <mxGeometry relative="1" as="geometry" />
        </mxCell>
        <mxCell id="5B5NyccUQG02KfH79UAM-54" style="edgeStyle=orthogonalEdgeStyle;rounded=0;orthogonalLoop=1;jettySize=auto;html=1;" edge="1" parent="1" source="5B5NyccUQG02KfH79UAM-29" target="5B5NyccUQG02KfH79UAM-34">
          <mxGeometry relative="1" as="geometry" />
        </mxCell>
        <mxCell id="5B5NyccUQG02KfH79UAM-29" value="¿Usuario autenticado?" style="strokeWidth=2;html=1;shape=mxgraph.flowchart.decision;whiteSpace=wrap;" vertex="1" parent="1">
          <mxGeometry x="-121.75" y="990" width="143.5" height="110" as="geometry" />
        </mxCell>
        <mxCell id="5B5NyccUQG02KfH79UAM-64" style="edgeStyle=orthogonalEdgeStyle;rounded=0;orthogonalLoop=1;jettySize=auto;html=1;" edge="1" parent="1" source="5B5NyccUQG02KfH79UAM-30" target="5B5NyccUQG02KfH79UAM-31">
          <mxGeometry relative="1" as="geometry" />
        </mxCell>
        <mxCell id="5B5NyccUQG02KfH79UAM-30" value="Ajustes" style="rounded=1;whiteSpace=wrap;html=1;absoluteArcSize=1;arcSize=14;strokeWidth=2;" vertex="1" parent="1">
          <mxGeometry x="296" y="840" width="140" height="50" as="geometry" />
        </mxCell>
        <mxCell id="5B5NyccUQG02KfH79UAM-31" value="Recalcular total" style="rounded=1;whiteSpace=wrap;html=1;absoluteArcSize=1;arcSize=14;strokeWidth=2;" vertex="1" parent="1">
          <mxGeometry x="296" y="930" width="140" height="50" as="geometry" />
        </mxCell>
        <mxCell id="5B5NyccUQG02KfH79UAM-62" style="edgeStyle=orthogonalEdgeStyle;rounded=0;orthogonalLoop=1;jettySize=auto;html=1;" edge="1" parent="1" source="5B5NyccUQG02KfH79UAM-34" target="5B5NyccUQG02KfH79UAM-36">
          <mxGeometry relative="1" as="geometry" />
        </mxCell>
        <mxCell id="5B5NyccUQG02KfH79UAM-34" value="&lt;div style=&quot;&quot;&gt;&lt;span style=&quot;background-color: transparent; color: light-dark(rgb(0, 0, 0), rgb(255, 255, 255));&quot;&gt;Mostrar formulario&amp;nbsp;&lt;/span&gt;&lt;/div&gt;&lt;div style=&quot;&quot;&gt;&lt;span style=&quot;background-color: transparent; color: light-dark(rgb(0, 0, 0), rgb(255, 255, 255));&quot;&gt;de registro&lt;/span&gt;&lt;/div&gt;" style="shape=parallelogram;html=1;strokeWidth=2;perimeter=parallelogramPerimeter;whiteSpace=wrap;rounded=1;arcSize=12;size=0.23;align=center;" vertex="1" parent="1">
          <mxGeometry x="-350" y="1016.88" width="174" height="56.25" as="geometry" />
        </mxCell>
        <mxCell id="5B5NyccUQG02KfH79UAM-61" style="edgeStyle=orthogonalEdgeStyle;rounded=0;orthogonalLoop=1;jettySize=auto;html=1;" edge="1" parent="1" source="5B5NyccUQG02KfH79UAM-35" target="5B5NyccUQG02KfH79UAM-37">
          <mxGeometry relative="1" as="geometry" />
        </mxCell>
        <mxCell id="5B5NyccUQG02KfH79UAM-35" value="&lt;div style=&quot;&quot;&gt;&lt;span style=&quot;background-color: transparent; color: light-dark(rgb(0, 0, 0), rgb(255, 255, 255));&quot;&gt;Mostrar formulario&amp;nbsp;&lt;/span&gt;&lt;/div&gt;&lt;div style=&quot;&quot;&gt;&lt;span style=&quot;background-color: transparent; color: light-dark(rgb(0, 0, 0), rgb(255, 255, 255));&quot;&gt;de registro&lt;/span&gt;&lt;/div&gt;" style="shape=parallelogram;html=1;strokeWidth=2;perimeter=parallelogramPerimeter;whiteSpace=wrap;rounded=1;arcSize=12;size=0.23;align=center;" vertex="1" parent="1">
          <mxGeometry x="73" y="1016.88" width="174" height="56.25" as="geometry" />
        </mxCell>
        <mxCell id="5B5NyccUQG02KfH79UAM-36" value="Luego checkout" style="rounded=1;whiteSpace=wrap;html=1;absoluteArcSize=1;arcSize=14;strokeWidth=2;" vertex="1" parent="1">
          <mxGeometry x="-333" y="1150" width="140" height="50" as="geometry" />
        </mxCell>
        <mxCell id="5B5NyccUQG02KfH79UAM-65" style="edgeStyle=orthogonalEdgeStyle;rounded=0;orthogonalLoop=1;jettySize=auto;html=1;" edge="1" parent="1" source="5B5NyccUQG02KfH79UAM-37" target="5B5NyccUQG02KfH79UAM-38">
          <mxGeometry relative="1" as="geometry" />
        </mxCell>
        <mxCell id="5B5NyccUQG02KfH79UAM-37" value="&lt;div style=&quot;&quot;&gt;Mostrar detalles&amp;nbsp;&lt;/div&gt;&lt;div style=&quot;&quot;&gt;del pedido y formas&amp;nbsp;&lt;/div&gt;&lt;div style=&quot;&quot;&gt;de pago&lt;/div&gt;" style="shape=parallelogram;html=1;strokeWidth=2;perimeter=parallelogramPerimeter;whiteSpace=wrap;rounded=1;arcSize=12;size=0.23;align=center;" vertex="1" parent="1">
          <mxGeometry x="73" y="1130" width="174" height="56.25" as="geometry" />
        </mxCell>
        <mxCell id="5B5NyccUQG02KfH79UAM-66" style="edgeStyle=orthogonalEdgeStyle;rounded=0;orthogonalLoop=1;jettySize=auto;html=1;" edge="1" parent="1" source="5B5NyccUQG02KfH79UAM-38" target="5B5NyccUQG02KfH79UAM-39">
          <mxGeometry relative="1" as="geometry" />
        </mxCell>
        <mxCell id="5B5NyccUQG02KfH79UAM-38" value="Procesar pago" style="rounded=1;whiteSpace=wrap;html=1;absoluteArcSize=1;arcSize=14;strokeWidth=2;" vertex="1" parent="1">
          <mxGeometry x="90" y="1240" width="140" height="50" as="geometry" />
        </mxCell>
        <mxCell id="5B5NyccUQG02KfH79UAM-59" style="edgeStyle=orthogonalEdgeStyle;rounded=0;orthogonalLoop=1;jettySize=auto;html=1;entryX=0;entryY=0.5;entryDx=0;entryDy=0;" edge="1" parent="1" source="5B5NyccUQG02KfH79UAM-39" target="5B5NyccUQG02KfH79UAM-40">
          <mxGeometry relative="1" as="geometry" />
        </mxCell>
        <mxCell id="5B5NyccUQG02KfH79UAM-60" style="edgeStyle=orthogonalEdgeStyle;rounded=0;orthogonalLoop=1;jettySize=auto;html=1;entryX=1;entryY=0.5;entryDx=0;entryDy=0;" edge="1" parent="1" source="5B5NyccUQG02KfH79UAM-39" target="5B5NyccUQG02KfH79UAM-41">
          <mxGeometry relative="1" as="geometry" />
        </mxCell>
        <mxCell id="5B5NyccUQG02KfH79UAM-39" value="¿Pago exitoso?" style="strokeWidth=2;html=1;shape=mxgraph.flowchart.decision;whiteSpace=wrap;" vertex="1" parent="1">
          <mxGeometry x="88.25" y="1340" width="143.5" height="110" as="geometry" />
        </mxCell>
        <mxCell id="5B5NyccUQG02KfH79UAM-48" style="edgeStyle=orthogonalEdgeStyle;rounded=0;orthogonalLoop=1;jettySize=auto;html=1;" edge="1" parent="1" source="5B5NyccUQG02KfH79UAM-40" target="5B5NyccUQG02KfH79UAM-43">
          <mxGeometry relative="1" as="geometry" />
        </mxCell>
        <mxCell id="5B5NyccUQG02KfH79UAM-68" style="edgeStyle=orthogonalEdgeStyle;rounded=0;orthogonalLoop=1;jettySize=auto;html=1;" edge="1" parent="1" source="5B5NyccUQG02KfH79UAM-40" target="5B5NyccUQG02KfH79UAM-43">
          <mxGeometry relative="1" as="geometry" />
        </mxCell>
        <mxCell id="5B5NyccUQG02KfH79UAM-40" value="Generar pedido + factura" style="rounded=1;whiteSpace=wrap;html=1;absoluteArcSize=1;arcSize=14;strokeWidth=2;" vertex="1" parent="1">
          <mxGeometry x="290" y="1370" width="160" height="50" as="geometry" />
        </mxCell>
        <mxCell id="5B5NyccUQG02KfH79UAM-67" style="edgeStyle=orthogonalEdgeStyle;rounded=0;orthogonalLoop=1;jettySize=auto;html=1;entryX=0.5;entryY=0;entryDx=0;entryDy=0;" edge="1" parent="1" source="5B5NyccUQG02KfH79UAM-41" target="5B5NyccUQG02KfH79UAM-42">
          <mxGeometry relative="1" as="geometry" />
        </mxCell>
        <mxCell id="5B5NyccUQG02KfH79UAM-41" value="&lt;div style=&quot;&quot;&gt;Mostrar error&lt;/div&gt;" style="shape=parallelogram;html=1;strokeWidth=2;perimeter=parallelogramPerimeter;whiteSpace=wrap;rounded=1;arcSize=12;size=0.23;align=center;" vertex="1" parent="1">
          <mxGeometry x="-140" y="1366.8700000000001" width="174" height="56.25" as="geometry" />
        </mxCell>
        <mxCell id="5B5NyccUQG02KfH79UAM-42" value="Reintentar o cambiar&amp;nbsp;&lt;div&gt;método de pago&lt;/div&gt;" style="rounded=1;whiteSpace=wrap;html=1;absoluteArcSize=1;arcSize=14;strokeWidth=2;" vertex="1" parent="1">
          <mxGeometry x="-133" y="1480" width="160" height="50" as="geometry" />
        </mxCell>
        <mxCell id="5B5NyccUQG02KfH79UAM-49" style="edgeStyle=orthogonalEdgeStyle;rounded=0;orthogonalLoop=1;jettySize=auto;html=1;" edge="1" parent="1" source="5B5NyccUQG02KfH79UAM-43" target="5B5NyccUQG02KfH79UAM-44">
          <mxGeometry relative="1" as="geometry" />
        </mxCell>
        <mxCell id="5B5NyccUQG02KfH79UAM-69" style="edgeStyle=orthogonalEdgeStyle;rounded=0;orthogonalLoop=1;jettySize=auto;html=1;entryX=0.5;entryY=0;entryDx=0;entryDy=0;" edge="1" parent="1" source="5B5NyccUQG02KfH79UAM-43" target="5B5NyccUQG02KfH79UAM-44">
          <mxGeometry relative="1" as="geometry" />
        </mxCell>
        <mxCell id="5B5NyccUQG02KfH79UAM-43" value="Generar pedido + factura" style="rounded=1;whiteSpace=wrap;html=1;absoluteArcSize=1;arcSize=14;strokeWidth=2;" vertex="1" parent="1">
          <mxGeometry x="290" y="1460" width="160" height="50" as="geometry" />
        </mxCell>
        <mxCell id="5B5NyccUQG02KfH79UAM-50" style="edgeStyle=orthogonalEdgeStyle;rounded=0;orthogonalLoop=1;jettySize=auto;html=1;" edge="1" parent="1" source="5B5NyccUQG02KfH79UAM-44" target="5B5NyccUQG02KfH79UAM-47">
          <mxGeometry relative="1" as="geometry" />
        </mxCell>
        <mxCell id="5B5NyccUQG02KfH79UAM-44" value="&lt;div style=&quot;&quot;&gt;Confirmación&lt;/div&gt;" style="shape=parallelogram;html=1;strokeWidth=2;perimeter=parallelogramPerimeter;whiteSpace=wrap;rounded=1;arcSize=12;size=0.23;align=center;" vertex="1" parent="1">
          <mxGeometry x="283" y="1550" width="174" height="56.25" as="geometry" />
        </mxCell>
        <mxCell id="5B5NyccUQG02KfH79UAM-47" value="Fin" style="strokeWidth=2;html=1;shape=mxgraph.flowchart.start_1;whiteSpace=wrap;" vertex="1" parent="1">
          <mxGeometry x="320" y="1640" width="100" height="40" as="geometry" />
        </mxCell>
        <mxCell id="5B5NyccUQG02KfH79UAM-51" value="NO" style="text;html=1;align=center;verticalAlign=middle;whiteSpace=wrap;rounded=0;" vertex="1" parent="1">
          <mxGeometry x="-166" y="1020" width="26" height="20" as="geometry" />
        </mxCell>
        <mxCell id="5B5NyccUQG02KfH79UAM-52" value="SI" style="text;html=1;align=center;verticalAlign=middle;whiteSpace=wrap;rounded=0;" vertex="1" parent="1">
          <mxGeometry x="34" y="1020" width="26" height="20" as="geometry" />
        </mxCell>
        <mxCell id="5B5NyccUQG02KfH79UAM-57" value="NO" style="text;html=1;align=center;verticalAlign=middle;whiteSpace=wrap;rounded=0;" vertex="1" parent="1">
          <mxGeometry x="34" y="1370" width="26" height="20" as="geometry" />
        </mxCell>
        <mxCell id="5B5NyccUQG02KfH79UAM-58" value="SI" style="text;html=1;align=center;verticalAlign=middle;whiteSpace=wrap;rounded=0;" vertex="1" parent="1">
          <mxGeometry x="254" y="1370" width="26" height="20" as="geometry" />
        </mxCell>
      </root>
    </mxGraphModel>
  </diagram>
</mxfile>
